<svg xmlns="http://www.w3.org/2000/svg" xmlns:xlink="http://www.w3.org/1999/xlink" enable-background="new 0 0 512 512" height="512px" id="Screw_x5F_bolts" version="1.1" viewBox="-3 -3 518 518" width="512px" xml:space="preserve"><g id="deeditor_bgCarrier" stroke-width="0">
  <rect id="dee_c_e2" x="-3" y="-3" width="518" height="518" rx="38.4" fill="#f8f8f8"  />
  <rect id="dee_c_e" x="1" y="1" width="510" height="510" rx="38.4" fill="#4051b5" strokewidth="5" stroke="#000000" />
</g><g id="Screw_x5F_bolts_1_"><g><g><polygon points="138.573,282.717 176.131,217.665 138.573,152.612 63.458,152.612 49.143,177.407 59.535,183.407 70.386,164.612      131.646,164.612 162.275,217.665 131.646,270.717 70.386,270.717 39.756,217.665 51.883,196.661 41.49,190.661 25.9,217.665      63.458,282.717    " fill="#f8f8f8"/><path d="M101.019,251.988c18.926,0,34.324-15.397,34.324-34.324s-15.398-34.324-34.324-34.324s-34.324,15.398-34.324,34.324     S82.092,251.988,101.019,251.988z M123.343,217.665c0,9.611-6.105,17.823-14.642,20.961c-8.703-3.19-14.648-11.576-14.648-20.961     s5.945-17.771,14.646-20.962C117.236,199.84,123.343,208.053,123.343,217.665z M86.612,200.63     c-2.913,5.076-4.559,10.917-4.559,17.034c0,6.119,1.647,11.96,4.56,17.036c-4.839-4.098-7.919-10.212-7.919-17.035     S81.774,204.729,86.612,200.63z" fill="#f8f8f8"/></g><g><path d="M81.052,299.589l-54.346,72.332l35.469,83.231l89.814,10.898l54.346-72.332l-35.469-83.23L81.052,299.589z      M146.558,453.304l-76.059-9.229L40.462,373.59l46.022-61.254l76.059,9.23l30.036,70.483L146.558,453.304z" fill="#f8f8f8"/><path d="M131.723,345.059c-10.087-4.059-21.15-3.947-31.151,0.316c-10.002,4.262-17.746,12.164-21.804,22.25     c-4.059,10.087-3.946,21.15,0.316,31.152c4.262,10.002,12.164,17.745,22.25,21.803c4.914,1.979,10.058,2.965,15.2,2.965     c5.413,0,10.822-1.094,15.951-3.28c10.002-4.263,17.746-12.164,21.804-22.251c4.059-10.086,3.946-21.148-0.316-31.15     S141.81,349.117,131.723,345.059z M105.276,356.414c3.618-1.541,7.432-2.313,11.249-2.313c3.625,0,7.254,0.695,10.719,2.09     c2.683,1.08,5.146,2.529,7.336,4.295c-8.627-2.26-17.977-1.711-26.662,1.984c-8.761,3.736-15.675,10.169-20.011,18.057     c0.232-2.854,0.894-5.689,1.993-8.422C92.762,364.992,98.223,359.42,105.276,356.414z M143.157,393.535     c-2.862,7.112-8.323,12.685-15.376,15.69c-7.054,3.005-14.856,3.085-21.967,0.223c-4.289-1.726-8.011-4.401-10.955-7.796     c-0.519-12.148,6.445-23.316,17.761-28.141c11.253-4.787,24.067-2.135,32.488,6.566     C145.548,384.603,144.902,389.197,143.157,393.535z" fill="#f8f8f8"/></g><path d="M281.482,268.558l7.862-2.325l-3.401-11.507l-4.461,1.318v-14.176l7.862-2.325l-3.401-11.508l-4.461,1.319v-14.177    l7.862-2.325l-3.401-11.508l-4.461,1.319v-13.994l8.482-2.508l-3.401-11.508l-5.081,1.502v-14.177l8.482-2.508l-3.401-11.508    l-5.081,1.502v-14.177l8.482-2.508l-3.401-11.508l-5.081,1.502v-9.413h34.34V45.949H171.045v67.411h34.339v31.911l-8.483,2.508    l3.402,11.508l5.081-1.502v14.177l-8.483,2.508l3.402,11.508l5.081-1.502v14.177l-8.483,2.508l3.402,11.508l5.081-1.502v13.994    l-9.103,2.691l3.402,11.508l5.7-1.686v14.177l-9.103,2.691l3.402,11.508l5.7-1.686v14.178l-9.103,2.691l3.402,11.508l5.7-1.686    v17.129h76.099V268.558z M183.045,101.36V57.949h120.777v43.411h-22.34h-76.099H183.045z M217.384,113.36h52.099v12.96    l-52.099,15.403V113.36z M217.384,154.238l52.099-15.403v14.177l-52.099,15.403V154.238z M217.384,180.929l52.099-15.403v14.177    l-52.099,15.403V180.929z M217.384,207.62l52.099-15.403v13.994l-52.099,15.404V207.62z M217.384,234.127l52.099-15.403V232.9    l-52.099,15.403V234.127z M217.384,260.817l52.099-15.403v14.178l-52.099,15.402V260.817z M217.384,296.186v-8.677l52.099-15.403    v24.08H217.384z" fill="#f8f8f8"/><path d="M438.434,338.701l47.666-47.667L383.727,188.662l-47.667,47.667l24.282,24.281l-22.565,22.564l-7.771-4.225l-5.73,10.543    l4.653,2.53l-10.025,10.026l-7.772-4.226l-5.73,10.543l4.654,2.53l-10.024,10.025l-7.772-4.226l-5.73,10.543l4.654,2.53    l-9.896,9.896l-8.339-4.534l-5.731,10.543l5.223,2.84l-10.025,10.024l-8.339-4.533l-5.731,10.543l5.222,2.839l-10.024,10.024    l-8.339-4.533l-5.731,10.543l5.222,2.839l-12.111,12.111l53.81,53.811l28.021-28.021l7.203,3.916l5.73-10.543l-4.086-2.222    l10.025-10.025l7.204,3.916l5.729-10.543l-4.085-2.221l10.024-10.025l7.204,3.916l5.73-10.543l-4.086-2.221l9.896-9.896    l7.771,4.226l5.731-10.543l-4.654-2.53l10.024-10.025l7.772,4.226l5.729-10.543l-4.654-2.53l10.025-10.025l7.771,4.225    l5.731-10.543l-4.654-2.529l6.655-6.656L438.434,338.701z M383.727,205.632l85.402,85.402l-30.695,30.696l-15.797-15.796l0,0    l-26.905-26.905l-42.701-42.701L383.727,205.632z M276.39,435.211l-36.839-36.84l6.135-6.135l47.731,25.947L276.39,435.211z     M302.265,409.336l-47.73-25.947l10.024-10.025l47.731,25.947L302.265,409.336z M321.139,390.463l-47.731-25.947l10.025-10.025    l47.731,25.947L321.139,390.463z M340.012,371.59l-47.731-25.948l9.896-9.896l47.731,25.947L340.012,371.59z M358.756,352.846    l-47.731-25.947l10.024-10.025l47.731,25.947L358.756,352.846z M377.629,333.973l-47.731-25.947l10.025-10.026l47.731,25.948    L377.629,333.973z M396.502,315.1l-47.731-25.949l20.056-20.055l18.42,18.419l18.42,18.42L396.502,315.1z" fill="#f8f8f8"/></g></g></svg>